HIERARCHY
ROOT RootJoint
{
    OFFSET   0.000000   0.000000   0.000000
    CHANNELS 6 Xposition Yposition Zposition Xrotation Yrotation Zrotation
    JOINT pelvis_lowerback
    {
        OFFSET   0.000000   0.093605   0.000000
        CHANNELS 3 Xrotation Yrotation Zrotation
        JOINT lowerback_torso
        {
            OFFSET   0.000000   0.100000   0.000000
            CHANNELS 3 Xrotation Yrotation Zrotation
            JOINT torso_head
            {
                OFFSET   0.000000   0.282350   0.000000
                CHANNELS 3 Xrotation Yrotation Zrotation
                End Site
                {
                    OFFSET   0.000000   0.192650   0.000000
                }
            }
            JOINT rTorso_Clavicle
            {
                OFFSET  -0.001000   0.157500   0.000000
                CHANNELS 3 Xrotation Yrotation Zrotation
                JOINT rShoulder
                {
                    OFFSET  -0.117647   0.000000   0.000000
                    CHANNELS 3 Xrotation Yrotation Zrotation
                    JOINT rElbow
                    {
                        OFFSET  -0.245000   0.000000   0.000000
                        CHANNELS 3 Xrotation Yrotation Zrotation
                        JOINT rWrist
                        {
                            OFFSET  -0.240000   0.000000   0.000000
                            CHANNELS 3 Xrotation Yrotation Zrotation
                            End Site
                            {
                                OFFSET  -0.116353  -0.002500   0.000000
                            }
                        }
                    }
                }
            }
            JOINT lTorso_Clavicle
            {
                OFFSET   0.001000   0.157500   0.000000
                CHANNELS 3 Xrotation Yrotation Zrotation
                JOINT lShoulder
                {
                    OFFSET   0.117647   0.000000   0.000000
                    CHANNELS 3 Xrotation Yrotation Zrotation
                    JOINT lElbow
                    {
                        OFFSET   0.245000   0.000000   0.000000
                        CHANNELS 3 Xrotation Yrotation Zrotation
                        JOINT lWrist
                        {
                            OFFSET   0.240000   0.000000   0.000000
                            CHANNELS 3 Xrotation Yrotation Zrotation
                            End Site
                            {
                                OFFSET   0.116353  -0.002500   0.000000
                            }
                        }
                    }
                }
            }
        }
    }
    JOINT rHip
    {
        OFFSET  -0.100000  -0.051395   0.000000
        CHANNELS 3 Xrotation Yrotation Zrotation
        JOINT rKnee
        {
            OFFSET   0.000000  -0.410000   0.000000
            CHANNELS 3 Xrotation Yrotation Zrotation
            JOINT rAnkle
            {
                OFFSET   0.000000  -0.390000   0.000000
                CHANNELS 3 Xrotation Yrotation Zrotation
                JOINT rToeJoint
                {
                    OFFSET   0.000000  -0.050000   0.130000
                    CHANNELS 3 Xrotation Yrotation Zrotation
                    End Site
                    {
                        OFFSET  -0.010000   0.002000   0.060000
                    }
                }
            }
        }
    }
    JOINT lHip
    {
        OFFSET   0.100000  -0.051395   0.000000
        CHANNELS 3 Xrotation Yrotation Zrotation
        JOINT lKnee
        {
            OFFSET   0.000000  -0.410000   0.000000
            CHANNELS 3 Xrotation Yrotation Zrotation
            JOINT lAnkle
            {
                OFFSET   0.000000  -0.390000   0.000000
                CHANNELS 3 Xrotation Yrotation Zrotation
                JOINT lToeJoint
                {
                    OFFSET   0.000000  -0.050000   0.130000
                    CHANNELS 3 Xrotation Yrotation Zrotation
                    End Site
                    {
                        OFFSET   0.010000   0.002000   0.060000
                    }
                }
            }
        }
    }
}
MOTION
Frames: 14
Frame Time:   0.008333
 -2.362121   0.913941   3.965896   3.491566   7.579137  -1.322932   0.399160   1.091741  -1.491422  -1.728474  -0.033055   2.631329   3.192230   1.253361  -0.750821   1.794368  -5.021001   2.785205   7.821697   6.024172  46.755876  -0.001090  22.239294   0.001292   0.505276   3.197545   1.978212  -8.569665   7.828609  14.512763 -39.890232  -8.912784 -14.805143 179.402592 -85.023033 179.401511  -0.233293  -9.724703   3.862936   0.847209  -4.895073  -5.608302  -0.000867   0.000002  -0.000002  -3.326995  -7.669066   2.516454  -0.243101   0.000011   0.000001   4.004183  -0.946833   6.463322  -0.001145   0.000002   0.000002  -7.405206   6.105473   0.152107   0.464896  -0.000000   0.000000
 -2.362269   0.913942   3.966107   3.545154   7.490725  -1.359445   0.421447   1.009088  -1.481296  -1.924420  -0.077913   2.551755   3.178773   1.242674  -0.843833   1.729296  -5.103080   2.701355   7.929613   6.094752  46.795247  -0.001125  22.392139   0.001365   0.519691   3.205595   1.973537  -8.927429   7.870625  14.598959 -41.465987  -8.445609 -15.150853 179.275623 -85.709984 179.275334  -0.450046  -9.869480   4.265842   0.787890  -4.858527  -5.567268  -0.000693   0.000002  -0.000001  -3.303085  -7.614855   2.520235  -0.279305   0.000012   0.000001   3.979504  -0.934313   6.500633  -0.000916   0.000002   0.000001  -7.427723   6.185986   0.156245   0.466527  -0.000000   0.000000
 -2.362436   0.913941   3.966316   3.598372   7.403747  -1.394894   0.441916   0.926824  -1.469778  -2.113509  -0.120952   2.476961   3.165411   1.231541  -0.928162   1.668867  -5.182783   2.627727   8.030541   6.160455  46.834199  -0.001118  22.535923   0.001400   0.532189   3.226148   1.968147  -9.272358   7.919024  14.668510 -42.939889  -7.977403 -15.459367 179.128702 -86.377065 179.129130  -0.665196  -9.885154   4.736093   0.729125  -4.822140  -5.525879  -0.000555   0.000002  -0.000001  -3.281944  -7.562160   2.524202  -0.311555   0.000013   0.000000   3.954359  -0.920395   6.538220  -0.000733   0.000001   0.000001  -7.449956   6.263702   0.161247   0.468696  -0.000001   0.000000
 -2.362620   0.913936   3.966520   3.648583   7.321411  -1.428226   0.459803   0.849927  -1.459620  -2.292034  -0.159965   2.405965   3.153106   1.220725  -1.005543   1.614747  -5.260088   2.562662   8.126692   6.220418  46.873070  -0.001080  22.669339   0.001389   0.543874   3.245104   1.966519  -9.596768   7.971295  14.727169 -44.311756  -7.524148 -15.735025 178.959498 -87.004864 178.960511  -0.873979  -9.857519   5.213810   0.674294  -4.787747  -5.485022  -0.000444   0.000001  -0.000001  -3.264932  -7.512437   2.528645  -0.338653   0.000014   0.000000   3.931018  -0.906684   6.575442  -0.000586   0.000001   0.000001  -7.471542   6.336995   0.166320   0.471239  -0.000001   0.000000
 -2.362821   0.913929   3.966716   3.695285   7.244874  -1.459351   0.475509   0.779186  -1.451392  -2.459608  -0.194865   2.338106   3.141744   1.210541  -1.077240   1.566186  -5.334363   2.504771   8.218118   6.275299  46.911386  -0.001023  22.793038   0.001345   0.555115   3.259505   1.969111  -9.900035   8.024818  14.777477 -45.587822  -7.090053 -15.981807 178.750010 -87.592191 178.751474  -1.075105  -9.821074   5.677832   0.623825  -4.755944  -5.444854  -0.000355   0.000001  -0.000001  -3.251668  -7.466193   2.533513  -0.360943   0.000014   0.000000   3.909545  -0.893885   6.612212  -0.000469   0.000001   0.000000  -7.492047   6.405372   0.171377   0.474123  -0.000001   0.000000
 -2.363037   0.913921   3.966900   3.738517   7.174242  -1.488366   0.489489   0.714443  -1.445235  -2.616622  -0.225932   2.272994   3.131215   1.201049  -1.143917   1.522171  -5.404999   2.452899   8.304573   6.325883  46.948706  -0.000956  22.907903   0.001276   0.565985   3.269969   1.975152 -10.182962   8.078110  14.820879 -46.774825  -6.676420 -16.203030 178.462772 -88.140742 178.464563  -1.268276  -9.785982   6.122637   0.577416  -4.726773  -5.405404  -0.000284   0.000001  -0.000001  -3.241560  -7.423435   2.538720  -0.378903   0.000014  -0.000000   3.889643  -0.882199   6.648510  -0.000375   0.000001   0.000000  -7.511191   6.468893   0.176420   0.477325  -0.000001   0.000000
 -2.363267   0.913911   3.967069   3.778437   7.109299  -1.515392   0.502101   0.655298  -1.441152  -2.763637  -0.253495   2.210355   3.121441   1.192228  -1.206024   1.481860  -5.471631   2.406113   8.385915   6.372815  46.984710  -0.000885  23.014749   0.001193   0.576487   3.277730   1.983721 -10.446683   8.130324  14.858358 -47.879187  -6.283505 -16.401566 178.011631 -88.652783 178.013643  -1.453564  -9.754820   6.547271   0.534673  -4.700028  -5.366708  -0.000227   0.000001  -0.000001  -3.234103  -7.383921   2.544176  -0.392969   0.000014  -0.000000   3.871028  -0.871659   6.684320  -0.000300   0.000001   0.000000  -7.528815   6.527782   0.181457   0.480820  -0.000001   0.000000
 -2.363472   0.913885   3.967223   3.818018   7.060861  -1.528982   0.526978   0.578241  -1.433906  -2.915577  -0.281415   2.155012   3.080259   1.170048  -1.268046   1.427589  -5.556006   2.370495   8.473581   6.406890  47.014532  -0.000810  23.124424   0.001155   0.589819   3.308078   1.971029 -10.691243   8.185606  14.924772 -48.847063  -5.818187 -16.580957 176.261568 -89.305427 176.263812  -1.637594  -9.866285   6.948737   0.495908  -4.665351  -5.346946  -0.000182   0.000000  -0.000000  -3.246580  -7.346823   2.550995  -0.382954   0.000009   0.000002   3.847736  -0.858858   6.705498  -0.000240   0.000000   0.000000  -7.542673   6.566399   0.182005   0.483352  -0.000001   0.000000
 -2.363669   0.913858   3.967365   3.856215   7.021913  -1.539507   0.550940   0.503594  -1.422505  -3.057543  -0.308423   2.104541   3.038773   1.148332  -1.322151   1.382217  -5.642655   2.343738   8.560221   6.434370  47.045410  -0.000719  23.224626   0.001093   0.601801   3.334568   1.957345 -10.914395   8.250609  14.972043 -49.739509  -5.359911 -16.739571 145.104935 -89.924326 145.107331  -1.824072  -9.872032   7.317071   0.460079  -4.627640  -5.332826  -0.000145   0.000000  -0.000000  -3.262383  -7.307445   2.558593  -0.114983  -0.000034   0.000094   3.823514  -0.850024   6.723607  -0.000192   0.000000   0.000000  -7.554560   6.599041   0.181970   0.485742  -0.000001   0.000000
 -2.363888   0.913750   3.967541   3.891147   6.990311  -1.505420   0.568635   0.432716  -1.448520  -3.188747  -0.334059   2.042177   3.000431   1.128077  -1.371186   1.346084  -5.730296   2.326520   8.646001   6.457434  47.083150  -0.000628  23.316886   0.001021   0.613429   3.353919   1.959592 -11.122304   8.318405  15.013341 -50.568094  -4.921858 -16.878282   4.375442 -89.464226   4.377910  -2.008264  -9.829610   7.663925   0.437732  -4.598801  -5.359746  -0.000116   0.000000  -0.000000  -3.186859  -7.275284   2.542558  -0.909350  -0.000147  -0.000117   3.803339  -0.845832   6.697764  -0.000154   0.000000   0.000000  -7.566783   6.626267   0.173392   0.486249  -0.000001   0.000000
 -2.364129   0.913710   3.967676   3.927191   6.950511  -1.509925   0.588396   0.372903  -1.433958  -3.313928  -0.353125   1.994130   2.964059   1.109299  -1.417327   1.313048  -5.812469   2.313858   8.727157   6.477403  47.115478  -0.000537  23.400725   0.000938   0.624883   3.361348   1.958886 -11.314255   8.390106  15.033483 -51.335872  -4.501472 -17.005286   2.002659 -88.909959   2.005165  -2.185029  -9.786487   7.995117   0.406470  -4.570332  -5.346966  -0.000093   0.000000  -0.000000  -3.252193  -7.246695   2.555706  -0.745534  -0.000164  -0.000064   3.780478  -0.835032   6.712709  -0.000123   0.000000   0.000000  -7.578006   6.657783   0.171615   0.488875  -0.000001   0.000000
 -2.364377   0.913686   3.967779   3.960131   6.916552  -1.520487   0.609768   0.316411  -1.416368  -3.428313  -0.370878   1.954259   2.930220   1.091763  -1.458109   1.283417  -5.890085   2.304234   8.803802   6.495893  47.148389  -0.000452  23.478702   0.000851   0.635889   3.365103   1.963749 -11.492527   8.459071  15.048957 -52.049730  -4.104045 -17.118924   1.251594 -88.390645   1.254083  -2.355573  -9.739768   8.311337   0.376536  -4.541341  -5.327717  -0.000074   0.000000  -0.000000  -3.296622  -7.216898   2.567478  -0.626182  -0.000162  -0.000023   3.757773  -0.826394   6.734843  -0.000098   0.000000   0.000000  -7.587005   6.685906   0.172682   0.492351  -0.000001   0.000000
 -2.364627   0.913665   3.967857   3.990153   6.887571  -1.530648   0.631817   0.263504  -1.400324  -3.533032  -0.387641   1.918054   2.898998   1.075447  -1.495538   1.256721  -5.963285   2.297586   8.876050   6.513059  47.181281  -0.000378  23.551253   0.000765   0.646515   3.367049   1.973617 -11.658418   8.524213  15.062000 -52.714174  -3.730390 -17.220479   0.880236 -87.905232   0.882665  -2.519590  -9.693149   8.612343   0.348265  -4.513494  -5.308688  -0.000060   0.000000  -0.000000  -3.333036  -7.188414   2.578268  -0.529443  -0.000153   0.000006   3.735442  -0.819713   6.757125  -0.000079   0.000000   0.000000  -7.593819   6.710824   0.174314   0.496030  -0.000002   0.000000
 -2.364841   0.913617   3.967936   4.007804   6.885647  -1.520936   0.659284   0.196815  -1.394964  -3.628393  -0.397668   1.894588   2.850696   1.069659  -1.548252   1.218556  -6.046136   2.303170   8.980759   6.516317  47.194839  -0.000304  23.626437   0.000689   0.661114   3.389560   1.968383 -11.792633   8.574447  15.101120 -53.161720  -3.320746 -17.286562   0.632396 -87.353047   0.634621  -2.658606  -9.747367   8.959949   0.338234  -4.506902  -5.310985  -0.000048   0.000000  -0.000000  -3.396735  -7.170941   2.590431  -0.408889  -0.000153   0.000031   3.721213  -0.820017   6.760477  -0.000063   0.000000   0.000000  -7.595349   6.714209   0.158765   0.495898  -0.000001   0.000000
